<svg width="49" height="30" viewBox="0 0 49 30" fill="none" xmlns="http://www.w3.org/2000/svg">
<g clip-path="url(#clip0_961_1637)">
<path d="M1.89355 14.5931C1.59508 14.4513 1.23964 14.5788 1.09855 14.8763C0.369349 16.412 0 18.0573 0 19.7657C0 21.474 0.367314 23.1193 1.09143 24.6601C1.19352 24.8762 1.40787 25.0027 1.63239 25.0027C1.71752 25.0027 1.80367 24.9847 1.88575 24.9457C2.18421 24.8056 2.31174 24.4502 2.172 24.1517C1.52284 22.7713 1.19352 21.296 1.19352 19.7657C1.19352 18.2354 1.52454 16.7627 2.17675 15.3881C2.31852 15.0903 2.19133 14.7345 1.89355 14.5931Z" fill="black"/>
<path d="M4.05787 19.764C4.05787 18.7217 4.25831 17.7226 4.65412 16.7939C4.78334 16.4907 4.64259 16.14 4.33869 16.0112C4.03514 15.8813 3.68547 16.0227 3.55591 16.3262C3.09668 17.4038 2.86401 18.5603 2.86401 19.7643C2.86401 20.9684 3.09702 22.1273 3.5576 23.2062C3.65426 23.4331 3.87506 23.5691 4.10671 23.5691C4.18472 23.5691 4.26476 23.5535 4.34107 23.5209C4.64394 23.3917 4.78503 23.041 4.65581 22.7381C4.25899 21.8078 4.05787 20.8073 4.05787 19.7643V19.764Z" fill="black"/>
<path d="M47.4857 14.8763C47.3446 14.5788 46.9884 14.4513 46.6907 14.5931C46.3929 14.7345 46.266 15.0903 46.4075 15.3881C47.0597 16.7624 47.3907 18.2354 47.3907 19.7657C47.3907 21.296 47.0614 22.7727 46.4122 24.1517C46.2725 24.4498 46.4 24.8053 46.6985 24.9457C46.7805 24.9844 46.867 25.0027 46.9518 25.0027C47.1763 25.0027 47.3907 24.8762 47.4921 24.6601C48.2169 23.121 48.5842 21.474 48.5842 19.7657C48.5842 18.0573 48.2149 16.412 47.4857 14.8766V14.8763Z" fill="black"/>
<path d="M44.2459 16.0109C43.943 16.1401 43.8013 16.4904 43.9305 16.7937C44.3256 17.723 44.5261 18.7221 44.5261 19.764C44.5261 20.806 44.3249 21.8085 43.9281 22.7375C43.7989 23.0407 43.9396 23.3911 44.2428 23.5203C44.3192 23.5532 44.3985 23.5688 44.4772 23.5688C44.7085 23.5688 44.9297 23.4328 45.0263 23.2059C45.4866 22.1283 45.7199 20.9701 45.7199 19.7637C45.7199 18.5573 45.4876 17.4038 45.0287 16.3259C44.8998 16.0224 44.5484 15.882 44.2459 16.0105V16.0109Z" fill="black"/>
<path d="M19.6563 2.23441C19.7421 2.23441 19.8289 2.21609 19.9117 2.17675C22.6606 0.871649 25.9159 0.874363 28.6753 2.17166C28.9748 2.31275 29.3292 2.18353 29.4696 1.88575C29.6094 1.58728 29.4818 1.23184 29.1834 1.09177C27.6429 0.367314 25.9959 0 24.2886 0C22.5812 0 20.9353 0.369349 19.3999 1.09855C19.1021 1.23998 18.9753 1.5961 19.1167 1.89355C19.2188 2.10892 19.4331 2.23441 19.6563 2.23441Z" fill="black"/>
<path d="M20.8496 3.55582C20.5464 3.68504 20.405 4.03539 20.5342 4.33861C20.6624 4.64182 21.0138 4.78223 21.317 4.65403C23.1776 3.86242 25.4046 3.86344 27.2612 4.65572C27.3375 4.68828 27.4175 4.70388 27.4955 4.70388C27.7268 4.70388 27.9476 4.56788 28.0443 4.34098C28.1735 4.03811 28.0328 3.68741 27.7295 3.55819C25.5752 2.63906 23.0081 2.63804 20.8493 3.55582H20.8496Z" fill="black"/>
<path d="M28.5927 21.4749H18.853C18.1801 21.4749 17.6354 22.0196 17.6354 22.6925C17.6354 24.0355 18.7271 25.1273 20.0702 25.1273H27.3751C28.7182 25.1273 29.81 24.0355 29.81 22.6925C29.81 22.0196 29.2653 21.4749 28.5924 21.4749H28.5927ZM27.3751 23.9101H20.0702C19.3973 23.9101 18.8526 23.3654 18.8526 22.6925H28.5924C28.5924 23.3654 28.0477 23.9101 27.3748 23.9101H27.3751ZM11.5481 23.9101C11.5481 24.583 11.0034 25.1276 10.3305 25.1276C9.65756 25.1276 9.11287 24.583 9.11287 23.9101C9.11287 23.2372 9.65756 22.6925 10.3305 22.6925C11.0034 22.6925 11.5481 23.2372 11.5481 23.9101ZM38.3348 23.9101C38.3348 24.583 37.7901 25.1276 37.1172 25.1276C36.4443 25.1276 35.8996 24.583 35.8996 23.9101C35.8996 23.2372 36.4443 22.6925 37.1172 22.6925C37.7901 22.6925 38.3348 23.2372 38.3348 23.9101ZM41.6888 11.8843H38.7618C38.3009 11.8843 37.8848 12.1411 37.6779 12.5545L37.4971 12.9134L34.4626 8.36044C33.8318 7.41519 32.8 6.80538 31.6665 6.73178C29.0194 6.55914 26.3698 6.47266 23.723 6.47266C21.0762 6.47266 18.4263 6.55914 15.7795 6.73178C14.646 6.80504 13.6115 7.41519 12.9834 8.36044L9.9489 12.9134L9.76813 12.5545C9.56124 12.1408 9.14509 11.8843 8.68416 11.8843H5.75685C5.08937 11.8843 4.54468 12.429 4.54468 13.0965C4.54468 13.5574 4.80142 13.9736 5.21486 14.1805L8.13167 15.6389L7.69957 16.288C7.0321 17.2882 6.67598 18.4638 6.67598 19.6654V28.7821C6.67598 29.455 7.22067 29.9997 7.89357 29.9997H12.7633C13.4362 29.9997 13.9809 29.455 13.9809 28.7821V27.5645H33.4631V28.7821C33.4631 29.455 34.0078 29.9997 34.6807 29.9997H39.5504C40.2233 29.9997 40.768 29.455 40.768 28.7821V19.6654C40.768 18.4638 40.4119 17.2882 39.7444 16.288L39.3123 15.6389L42.2291 14.1805C42.6429 13.9736 42.8993 13.5574 42.8993 13.0965C42.8993 12.4287 42.3546 11.8843 41.6871 11.8843H41.6898H41.6888ZM8.6784 13.0992L9.15221 14.0472L8.77269 14.5997L5.77482 13.1019H8.6784V13.0992ZM39.5524 28.7825H34.6827V27.5649C34.6827 26.892 34.138 26.3473 33.4651 26.3473H13.9829C13.31 26.3473 12.7653 26.892 12.7653 27.5649V28.7825H7.8929V19.6658C7.8929 18.7022 8.17576 17.7675 8.70994 16.9637L13.9934 9.03843C14.415 8.40487 15.1113 7.99652 15.8575 7.94937C18.4677 7.77911 21.1121 7.69263 23.7227 7.69263C26.3332 7.69263 28.9773 7.77911 31.5878 7.94937C32.3316 7.99923 33.0279 8.40487 33.4522 9.03843L38.7357 16.9637C39.2699 17.7675 39.5528 18.6995 39.5528 19.6658V28.7825H39.5524ZM38.6726 14.5997L38.2931 14.0472L38.7618 13.1019H41.6654L38.6726 14.597V14.5997ZM37.5259 17.3957L32.1298 18.2962C31.1402 18.4614 30.4201 19.3096 30.4201 20.3149C30.4201 20.6527 30.6925 20.9247 31.0303 20.9247H37.1176C38.1256 20.9247 38.945 20.1053 38.945 19.0973V18.5974C38.945 18.2389 38.7879 17.9011 38.5156 17.6681C38.2405 17.4351 37.8793 17.3354 37.5286 17.3957H37.5259ZM37.725 19.095C37.725 19.43 37.4527 19.7051 37.1149 19.7051H31.9019C32.0172 19.5976 32.1637 19.5243 32.3286 19.4982L37.7247 18.5974V19.0973V19.0946L37.725 19.095ZM15.3158 18.2938L9.91974 17.3934C9.57141 17.333 9.20749 17.4327 8.93277 17.6657C8.66042 17.8987 8.50339 18.2365 8.50339 18.5954V19.0953C8.50339 20.1033 9.32281 20.9227 10.3308 20.9227H16.4181C16.7559 20.9227 17.0279 20.6504 17.0279 20.3125C17.0279 19.3073 16.3079 18.459 15.3182 18.2938H15.3155H15.3158ZM10.3281 19.7024C9.99299 19.7024 9.71793 19.43 9.71793 19.0922V18.5923L15.114 19.4928C15.2789 19.5189 15.4257 19.5949 15.5407 19.6997H10.3277V19.7024H10.3281ZM11.6318 15.3876H35.8135C36.0387 15.3876 36.2456 15.2644 36.35 15.0654C36.4548 14.8663 36.4443 14.6282 36.3185 14.4396L32.9411 9.37589C32.6243 8.89937 32.1007 8.5931 31.5455 8.55647C26.3586 8.21867 21.0806 8.21867 15.8965 8.55647C15.3416 8.5931 14.8203 8.89937 14.5008 9.37589L11.1234 14.4396C10.9976 14.6255 10.9874 14.8663 11.0919 15.0654C11.1967 15.2644 11.4036 15.3876 11.6288 15.3876H11.6315H11.6318ZM15.5146 10.0518C15.6245 9.88701 15.7974 9.78221 15.9755 9.7717C21.1097 9.4366 26.3332 9.4366 31.4674 9.7717C31.6479 9.78221 31.8181 9.88701 31.9284 10.0518L34.6749 14.1703H12.7707L15.5173 10.0518H15.5146Z" fill="black"/>
</g>
<defs>
<clipPath id="clip0_961_1637">
<rect width="48.5841" height="30" fill="white"/>
</clipPath>
</defs>
</svg>
