<svg width="537" height="44" viewBox="0 0 537 44" fill="none" xmlns="http://www.w3.org/2000/svg">
<g clip-path="url(#clip0_969_3606)">
<path d="M10.963 8.62548C15.1708 8.1136 20.1001 7.82744 30.6762 7.82744C41.2522 7.82744 48.7812 8.45217 54.7624 9.25827L56.9792 2.86589C50.9415 1.77765 43.4125 0.979614 30.6802 0.979614C17.9478 0.979614 7.25491 1.49149 2.99063 2.74497C1.10839 3.32134 0 4.11535 0 6.68681V36.7745C0 39.346 1.10839 40.144 2.99063 40.7163C7.25491 41.9739 17.9398 42.4857 30.6762 42.4857C43.4125 42.4857 50.9415 41.6917 56.9752 40.6035L54.7584 34.2111C48.7771 35.0091 41.2482 35.6379 30.6721 35.6379C20.0961 35.6379 15.1668 35.3558 10.9589 34.8439C9.62887 34.6706 9.52005 34.328 9.52005 33.4131V24.7354H53.7589V17.8835H9.52408V10.0603C9.52408 9.14541 9.6329 8.80685 10.963 8.63354V8.62548Z" fill="#1D1D1B"/>
<path d="M202.589 1.89038H193.065C193.065 1.89038 181.675 13.3854 177.564 15.1951C173.832 16.8395 172.917 17.3071 164.735 17.3071H148.77V1.89038H139.246V41.6271H148.77V24.2718H164.735C175.698 24.2718 175.669 25.1182 179.2 27.1858C181.389 28.4635 193.061 41.6311 193.061 41.6311H202.585C202.585 41.6311 188.777 26.2669 186.548 24.441C184.283 22.587 182.993 21.8776 178.229 20.733C182.993 19.5923 184.375 19.012 186.616 17.3675C188.676 15.8561 202.585 1.89038 202.585 1.89038H202.589Z" fill="#1D1D1B"/>
<path d="M335.914 4.63113C333.81 3.59932 325.89 0.975464 306.733 0.975464C287.576 0.975464 279.656 3.59932 277.553 4.63113C276.984 4.9173 276.529 5.23167 276.134 5.58233L278.866 11.9747C281.023 11.0356 284.807 9.95139 285.747 9.70956C289.898 8.62133 296.153 7.88375 306.729 7.88375C317.305 7.88375 323.561 8.62536 327.716 9.70956C329.042 10.0522 329.155 10.5076 329.155 11.4225V32.0345C329.155 32.9494 329.042 33.4049 327.716 33.7435C323.561 34.8317 317.305 35.5693 306.729 35.5693C296.153 35.5693 289.898 34.8277 285.747 33.7435C284.493 33.425 282.03 32.5948 281.748 31.7363L271.676 9.0808H271.644C270.773 7.14213 269.79 5.57427 268.049 4.63113C265.989 3.51468 258.025 0.975464 238.868 0.975464C219.711 0.975464 211.791 3.60335 209.687 4.63113C207.861 5.54605 206.918 6.57383 206.918 9.13723V34.3158C206.918 36.8872 207.857 37.911 209.687 38.8259C211.791 39.8577 219.711 42.4816 238.868 42.4816C258.025 42.4816 265.945 39.8577 268.049 38.8259C268.617 38.5397 269.068 38.2254 269.467 37.8747L266.735 31.4823C264.578 32.4214 260.794 33.5057 259.855 33.7475C255.703 34.8357 249.448 35.5733 238.872 35.5733C228.296 35.5733 222.04 34.8317 217.885 33.7475C216.559 33.4049 216.446 32.9494 216.446 32.0345V11.4225C216.446 10.5076 216.559 10.0522 217.885 9.71359C222.04 8.62536 228.296 7.88778 238.872 7.88778C249.448 7.88778 255.703 8.62939 259.855 9.71359C261.185 10.0522 263.958 10.959 263.958 11.8739L264.042 11.9344L276.017 37.1895C276.392 37.8908 276.875 38.4632 277.553 38.8259C279.612 39.9424 287.576 42.4816 306.733 42.4816C325.89 42.4816 333.81 39.8537 335.914 38.8259C337.74 37.911 338.683 36.8832 338.683 34.3158V9.13723C338.683 6.56577 337.744 5.54202 335.914 4.63113Z" fill="#1D1D1B"/>
<path d="M128.436 4.63113C126.55 3.43004 115.313 0.975464 97.2156 0.975464C79.1187 0.975464 67.8816 3.43004 65.9954 4.63113C64.5202 5.4856 63.7383 6.57383 63.7383 9.13723V41.6231H73.3148V11.5394C73.3148 10.6245 73.3631 10.169 74.5118 9.82242C77.4138 8.88331 83.5684 8.049 92.4516 7.84747V41.6271H101.976V7.84747C110.863 8.05303 117.018 8.88331 119.919 9.82242C121.068 10.169 121.117 10.6245 121.117 11.5394V41.6231H130.693V9.13723C130.693 6.5698 129.911 5.4856 128.436 4.63113Z" fill="#1D1D1B"/>
<path d="M533.107 0.302408C530.692 -0.608486 527.996 0.604695 527.077 3.01897L515.276 34.1385C514.889 35.1622 513.905 35.8393 512.813 35.8393H505.361C504.325 35.8393 503.386 35.2307 502.958 34.2876L488.815 2.91014C487.755 0.556329 484.99 -0.491601 482.637 0.568421L481.794 0.947288C479.44 2.00731 478.392 4.77223 479.448 7.12605L491.725 34.4126L492.374 35.8393L494.515 40.6034C495.292 42.3365 497.013 43.4489 498.912 43.4489H519.407C521.41 43.4489 523.204 42.2116 523.913 40.3414L525.626 35.8393L526.166 34.4126L536.69 6.66657C537.609 4.24827 536.387 1.5438 533.969 0.632909L533.103 0.306438L533.107 0.302408Z" fill="#2C61AB"/>
<path d="M476.232 6.64229V3.82094C476.232 2.43445 475.108 1.30591 473.717 1.30591H425.42C424.098 1.30591 423.021 2.37802 423.021 3.70406V41.0547C423.021 42.3767 424.094 43.4529 425.42 43.4529H473.717C475.104 43.4529 476.232 42.3284 476.232 40.9378V38.1366C476.232 36.7501 475.108 35.6216 473.717 35.6216H435.121C433.722 35.6216 432.586 34.489 432.586 33.0864V27.4316C432.586 26.033 433.718 24.8964 435.121 24.8964H460.485C461.871 24.8964 463 23.7719 463 22.3814C463 20.9949 461.876 19.8664 460.485 19.8664H435.121C433.722 19.8664 432.586 18.7338 432.586 17.3312V11.6764C432.586 10.2778 433.718 9.14121 435.121 9.14121H473.717C475.104 9.14121 476.232 8.0167 476.232 6.62617V6.64229Z" fill="#2C61AB"/>
<path d="M409.048 5.19131V15.9648C409.048 17.1055 408.125 18.0285 406.984 18.0285H373.902C372.761 18.0285 371.838 17.1055 371.838 15.9648V5.19131C371.838 3.05111 370.105 1.31799 367.965 1.31799H366.143C364.003 1.31799 362.27 3.05111 362.27 5.19131V39.5836C362.27 41.7238 364.003 43.4569 366.143 43.4569H367.965C370.105 43.4569 371.838 41.7238 371.838 39.5836V28.8101C371.838 27.6694 372.761 26.7464 373.902 26.7464H406.984C408.125 26.7464 409.048 27.6694 409.048 28.8101V39.5836C409.048 41.7238 410.781 43.4569 412.921 43.4569H414.743C416.883 43.4569 418.616 41.7238 418.616 39.5836V5.19131C418.616 3.05111 416.883 1.31799 414.743 1.31799H412.921C410.781 1.31799 409.048 3.05111 409.048 5.19131Z" fill="#2C61AB"/>
</g>
<defs>
<clipPath id="clip0_969_3606">
<rect width="537" height="43.4569" fill="white"/>
</clipPath>
</defs>
</svg>
