<svg width="351" height="95" viewBox="0 0 351 95" fill="none" xmlns="http://www.w3.org/2000/svg">
<g clip-path="url(#clip0_1008_217)">
<path d="M11.3618 8.31161C15.7227 7.78112 20.8313 7.48454 31.7921 7.48454C42.7529 7.48454 50.5558 8.132 56.7547 8.96742L59.0521 2.3425C52.7947 1.21049 44.9877 0.383423 31.7921 0.383423C18.5966 0.383423 7.51883 0.918095 3.09943 2.21718C1.14871 2.81034 0 3.63741 0 6.30242V37.4847C0 40.1497 1.14871 40.9768 3.09943 41.5699C7.51883 42.8732 18.5924 43.4037 31.7921 43.4037C44.9919 43.4037 52.7947 42.5808 59.0479 41.453L56.7505 34.828C50.5516 35.6551 42.7487 36.3067 31.788 36.3067C20.8272 36.3067 15.7185 36.0143 11.3576 35.4838C9.97916 35.3042 9.86638 34.9492 9.86638 34.001V25.0076H55.7146V17.9065H9.87056V9.79867C9.87056 8.85046 9.98334 8.49959 11.3618 8.31997V8.31161Z" fill="#1D1D1B"/>
<path d="M209.959 1.33154H200.089C200.089 1.33154 188.284 13.2447 184.023 15.1202C180.155 16.8245 179.207 17.3091 170.728 17.3091H154.182V1.33154H144.312V42.5139H154.182V24.5271H170.728C182.089 24.5271 182.06 25.4043 185.719 27.5472C187.988 28.8714 200.085 42.518 200.085 42.518H209.955C209.955 42.518 195.644 26.5948 193.334 24.7026C190.987 22.7811 189.65 22.0459 184.713 20.8596C189.65 19.6775 191.083 19.076 193.405 17.3717C195.54 15.8053 209.955 1.33154 209.955 1.33154H209.959Z" fill="#1D1D1B"/>
<path d="M348.135 4.17208C345.954 3.10273 337.746 0.383423 317.892 0.383423C298.038 0.383423 289.83 3.10273 287.65 4.17208C287.061 4.46866 286.589 4.79447 286.179 5.15788L289.011 11.7828C291.246 10.8095 295.169 9.68589 296.142 9.43526C300.444 8.30744 306.927 7.54302 317.888 7.54302C328.849 7.54302 335.332 8.31161 339.638 9.43526C341.013 9.79032 341.129 10.2623 341.129 11.2105V32.5724C341.129 33.5206 341.013 33.9926 339.638 34.3435C335.332 35.4713 328.849 36.2357 317.888 36.2357C306.927 36.2357 300.444 35.4671 296.142 34.3435C294.843 34.0135 292.29 33.153 291.998 32.2633L281.559 8.78363H281.526C280.624 6.77443 279.605 5.14953 277.8 4.17208C275.67 3.01501 267.416 0.383423 247.562 0.383423C227.708 0.383423 219.5 3.10691 217.319 4.17208C215.427 5.12029 214.45 6.18546 214.45 8.84211V34.9366C214.45 37.6016 215.423 38.6626 217.319 39.6108C219.5 40.6802 227.708 43.3995 247.562 43.3995C267.416 43.3995 275.624 40.6802 277.804 39.6108C278.393 39.3143 278.861 38.9885 279.275 38.625L276.442 32.0001C274.208 32.9734 270.285 34.097 269.312 34.3477C265.01 35.4755 258.527 36.2399 247.566 36.2399C236.605 36.2399 230.122 35.4713 225.816 34.3477C224.441 33.9926 224.324 33.5206 224.324 32.5724V11.2105C224.324 10.2623 224.441 9.79032 225.816 9.43944C230.122 8.31161 236.605 7.5472 247.566 7.5472C258.527 7.5472 265.01 8.31579 269.312 9.43944C270.691 9.79032 273.564 10.7302 273.564 11.6784L273.652 11.741L286.062 37.9149C286.451 38.6418 286.952 39.2349 287.654 39.6108C289.788 40.7679 298.042 43.3995 317.896 43.3995C337.75 43.3995 345.958 40.676 348.139 39.6108C350.031 38.6626 351.008 37.5975 351.008 34.9366V8.84211C351.008 6.1771 350.035 5.11611 348.139 4.17208H348.135Z" fill="#1D1D1B"/>
<path d="M133.108 4.17208C131.154 2.92729 119.508 0.383423 100.752 0.383423C81.9971 0.383423 70.3512 2.92729 68.3963 4.17208C66.8675 5.05763 66.0571 6.18546 66.0571 8.84211V42.5098H75.982V11.3317C75.982 10.3835 76.0321 9.91146 77.2226 9.55222C80.2301 8.57895 86.6086 7.71428 95.815 7.50543V42.514H105.686V7.50543C114.896 7.71846 121.275 8.57895 124.282 9.55222C125.473 9.91146 125.523 10.3835 125.523 11.3317V42.5098H135.448V8.84211C135.448 6.18128 134.637 5.05763 133.108 4.17208Z" fill="#1D1D1B"/>
<path d="M346.969 50.2291C344.467 49.285 341.673 50.5424 340.72 53.0445L328.49 85.2961C328.089 86.3571 327.069 87.0588 325.937 87.0588H318.214C317.14 87.0588 316.167 86.4281 315.724 85.4506L301.067 52.9317C299.968 50.4922 297.103 49.4062 294.663 50.5048L293.79 50.8974C291.351 51.996 290.265 54.8615 291.359 57.3009L304.083 85.5801L304.755 87.0588L306.973 91.9962C307.779 93.7924 309.563 94.9452 311.531 94.9452H332.771C334.847 94.9452 336.706 93.6629 337.441 91.7247L339.217 87.0588L339.776 85.5801L350.683 56.8248C351.635 54.3185 350.37 51.5156 347.863 50.5716L346.965 50.2332L346.969 50.2291Z" fill="#2C61AB"/>
<path d="M288.026 56.7997V53.8757C288.026 52.4388 286.86 51.2692 285.419 51.2692H235.365C233.994 51.2692 232.879 52.3803 232.879 53.7546V92.464C232.879 93.8341 233.99 94.9494 235.365 94.9494H285.419C286.856 94.9494 288.026 93.784 288.026 92.3429V89.4398C288.026 88.0028 286.86 86.8332 285.419 86.8332H245.419C243.969 86.8332 242.791 85.6595 242.791 84.2058V78.3453C242.791 76.8959 243.965 75.7179 245.419 75.7179H271.706C273.143 75.7179 274.312 74.5525 274.312 73.1114C274.312 71.6744 273.147 70.5048 271.706 70.5048H245.419C243.969 70.5048 242.791 69.3311 242.791 67.8774V62.0169C242.791 60.5675 243.965 59.3895 245.419 59.3895H285.419C286.856 59.3895 288.026 58.2241 288.026 56.783V56.7997Z" fill="#2C61AB"/>
<path d="M218.397 55.296V66.4614C218.397 67.6436 217.44 68.6001 216.258 68.6001H181.972C180.79 68.6001 179.834 67.6436 179.834 66.4614V55.296C179.834 53.0779 178.038 51.2817 175.82 51.2817H173.931C171.713 51.2817 169.917 53.0779 169.917 55.296V90.9394C169.917 93.1575 171.713 94.9536 173.931 94.9536H175.82C178.038 94.9536 179.834 93.1575 179.834 90.9394V79.7739C179.834 78.5918 180.79 77.6353 181.972 77.6353H216.258C217.44 77.6353 218.397 78.5918 218.397 79.7739V90.9394C218.397 93.1575 220.193 94.9536 222.411 94.9536H224.299C226.517 94.9536 228.314 93.1575 228.314 90.9394V55.296C228.314 53.0779 226.517 51.2817 224.299 51.2817H222.411C220.193 51.2817 218.397 53.0779 218.397 55.296Z" fill="#2C61AB"/>
</g>
<defs>
<clipPath id="clip0_1008_217">
<rect width="351" height="94.5702" fill="white" transform="translate(0 0.383423)"/>
</clipPath>
</defs>
</svg>
